PathFileType	4	(X/Y/Z)	c:/Users/goper/Files/vsCode/490R/osim_files/C03/C03_SSW_04.trc
DataRate	CameraRate	NumFrames	NumMarkers	Units                	OrigDataRate	OrigDataStartFrame	OrigNumFrames
250.00	250.00	7	36	mm	250.0	1972	2629
                Frame#	Time	LPSIS			LASIS			LTH1			LTH2			LTH3			LTH4			LLFE			LMFE			LSH1			LSH2			LSH3			LSH4			LLMAL			LMMAL			LCAL			LMTP5			LTOE			LMTP1			RPSIS			RASIS			RTH1			RTH2			RTH3			RTH4			RLFE			RMFE			RSH1			RSH2			RSH3			RSH4			RLMAL			RMMAL			RCAL			RMTP1			RTOE			RMTP5		
		X1	Y1	Z1	X2	Y2	Z2	X3	Y3	Z3	X4	Y4	Z4	X5	Y5	Z5	X6	Y6	Z6	X7	Y7	Z7	X8	Y8	Z8	X9	Y9	Z9	X10	Y10	Z10	X11	Y11	Z11	X12	Y12	Z12	X13	Y13	Z13	X14	Y14	Z14	X15	Y15	Z15	X16	Y16	Z16	X17	Y17	Z17	X18	Y18	Z18	X19	Y19	Z19	X20	Y20	Z20	X21	Y21	Z21	X22	Y22	Z22	X23	Y23	Z23	X24	Y24	Z24	X25	Y25	Z25	X26	Y26	Z26	X27	Y27	Z27	X28	Y28	Z28	X29	Y29	Z29	X30	Y30	Z30	X31	Y31	Z31	X32	Y32	Z32	X33	Y33	Z33	X34	Y34	Z34	X35	Y35	Z35	X36	Y36	Z36

1972	7.88400	-3106.59692	1009.29211	281.79526	-3282.62695	947.31592	337.35837	0.00000	0.00000	0.00000	-3073.07764	567.29486	358.63657	-3155.58374	611.36230	370.18335	-3137.21875	552.54834	363.97498	-3060.70850	477.60367	353.06912	-3077.59668	461.57962	245.52660	-2892.90039	380.23859	348.83270	0.00000	0.00000	0.00000	-2940.32568	343.99033	361.88409	-2906.70337	310.02609	356.69147	-2791.22583	188.06122	328.00162	-2818.66895	182.32542	251.75061	-2708.84595	197.51743	289.55844	-2842.86353	54.10360	346.85260	-2876.29761	54.03503	293.42041	-2856.83472	56.49958	252.31731	-3118.74023	1006.52448	168.57938	-3297.62305	970.13013	132.05437	0.00000	0.00000	0.00000	0.00000	0.00000	0.00000	-3323.09204	600.25269	91.48259	-3347.19043	543.15424	100.89842	-3358.70776	476.48071	122.99165	-3321.09424	483.70642	230.28566	-3335.77539	271.77997	104.87718	-3356.23120	227.47906	111.09061	-3388.15039	290.80591	104.79414	-3397.19995	250.44336	106.39587	-3420.11890	98.93311	136.74413	-3437.31982	107.34510	219.13373	-3370.27051	59.50123	179.09735	0.00000	0.00000	0.00000	0.00000	0.00000	0.00000	-3542.71680	53.00232	121.35356
1973	7.88800	-3112.61768	1010.15198	282.26169	-3288.72510	947.97333	336.45718	-3090.28076	627.32983	363.12439	-3081.80664	566.33514	358.28979	-3164.03394	611.15930	369.90790	-3146.17285	552.19666	363.81339	-3070.10181	477.11905	352.97141	-3087.83569	459.87381	245.82368	-2901.15088	382.03372	348.57883	0.00000	0.00000	0.00000	-2946.64453	343.58157	360.43478	-2913.79028	311.63699	356.81055	-2796.67285	190.37125	327.97318	-2824.92725	184.65198	252.72302	-2715.27808	203.16718	289.86508	-2844.45581	54.90943	347.16479	-2878.62085	54.61360	293.91711	-2858.97412	57.67341	252.69681	-3124.40771	1007.98181	168.94350	-3303.27466	971.90143	131.55373	0.00000	0.00000	0.00000	0.00000	0.00000	0.00000	-3327.48071	601.59393	91.11359	-3351.25903	544.33783	100.73278	-3362.01587	477.30197	122.21886	-3323.81470	484.73914	229.24663	-3338.09424	272.60287	103.65308	-3358.38452	228.30292	109.83914	-3390.66602	291.37213	104.18910	-3399.43896	251.12662	105.49829	-3420.33228	98.72068	136.47935	-3440.23730	106.26987	219.71391	-3384.89282	55.63892	176.66916	-3564.93652	76.83948	225.67442	0.00000	0.00000	0.00000	-3543.11133	52.36360	121.37658
1974	7.89200	-3116.31616	1011.42133	282.66452	-3294.93384	948.57489	335.61276	-3098.69189	626.38989	362.69580	-3090.68408	565.40845	357.96451	-3172.53052	610.94464	369.60580	-3155.15698	551.77856	363.60815	-3079.45703	476.42200	352.88361	-3098.26416	458.12280	246.10529	-2909.72852	383.76746	348.30322	0.00000	0.00000	0.00000	-2956.23926	346.50955	362.82681	-2921.26050	313.27972	357.16446	-2802.73047	193.35162	328.74677	-2830.78296	186.74850	253.57083	-2722.14331	208.95100	290.30408	-2846.09180	55.93695	347.21335	-2879.79370	54.73320	294.28104	-2861.20117	58.92474	253.07626	-3129.92310	1009.60040	169.37292	-3308.80322	973.64929	131.00548	0.00000	0.00000	0.00000	0.00000	0.00000	0.00000	-3331.62891	602.81146	90.84826	-3355.14453	545.53558	100.55390	-3365.24536	478.09811	121.45541	-3324.86060	484.88492	227.78036	-3340.15088	273.38925	102.52584	-3360.00195	228.94560	108.75625	-3392.99756	291.84814	103.66312	-3401.64551	251.78127	104.60197	-3420.64893	98.52312	136.25635	-3438.96826	106.58881	218.88846	0.00000	0.00000	0.00000	-3565.20776	76.12845	225.61685	0.00000	0.00000	0.00000	-3543.18994	51.57344	121.26305
1975	7.89600	-3124.64355	1011.93414	283.22302	-3300.82178	949.33002	334.70392	-3107.21265	625.58771	362.38513	-3099.65356	564.32135	357.52023	-3181.12964	610.69434	369.37146	-3164.35229	551.39575	363.38284	-3089.09912	475.82108	352.73776	-3108.90649	456.48828	246.43976	-2918.44824	385.45410	347.94690	0.00000	0.00000	0.00000	-2964.38770	347.62589	362.92419	-2929.03052	314.99109	357.46875	-2809.17847	196.41920	329.39645	-2837.47192	189.15512	254.24651	-2729.40503	214.90889	290.84918	-2848.09082	57.50780	347.69464	-2882.08667	55.34733	294.67252	-2863.72363	60.47322	253.38281	-3135.55786	1011.08392	169.78595	-3314.46899	975.41083	130.51059	0.00000	0.00000	0.00000	0.00000	0.00000	0.00000	-3335.70142	604.01624	90.56800	-3358.96655	546.73303	100.39366	-3368.51172	478.80579	120.71830	-3329.08203	486.95395	227.19188	-3341.89355	274.25485	101.87718	-3361.84131	229.61543	107.65983	-3395.10132	292.20493	103.09348	-3401.40186	249.50749	106.65134	-3420.92871	98.29211	135.96246	-3439.42456	106.65657	218.56430	-3366.54541	60.60296	180.56461	0.00000	0.00000	0.00000	0.00000	0.00000	0.00000	-3543.36572	50.87390	121.17567
1976	7.90000	-3130.55322	1012.73309	283.80872	-3306.86646	950.05719	333.86777	-3115.68262	624.49036	361.86292	-3108.85986	563.26227	357.24438	-3189.84180	610.46771	369.04123	-3173.62891	550.95178	363.15070	-3098.62646	475.02142	352.63742	-3119.69312	454.85422	246.75688	-2927.35107	386.98322	347.57056	0.00000	0.00000	0.00000	-2971.25854	347.28018	361.20401	-2937.00488	316.69263	357.84976	-2816.56763	199.69022	330.28738	-2843.80225	191.80235	254.65131	-2737.29956	220.96985	291.64389	-2850.48022	59.33149	347.90237	-2885.25171	56.10709	294.98178	-2866.41870	62.15152	253.65364	-3140.81958	1012.55103	170.20602	-3319.82471	977.02899	129.88596	0.00000	0.00000	0.00000	0.00000	0.00000	0.00000	-3339.67017	605.16180	90.32484	-3362.58472	547.72760	100.24611	-3371.58618	479.42096	120.05796	-3330.06885	487.08524	225.74326	-3343.86279	274.95190	100.82755	-3363.60034	230.07091	106.71526	-3397.17480	292.50537	102.43270	-3403.22559	249.83282	106.09561	-3421.22705	98.10032	135.74007	-3439.83545	106.66945	218.21802	0.00000	0.00000	0.00000	-3565.71143	74.87992	225.35962	0.00000	0.00000	0.00000	-3543.70654	50.24978	121.09039
1977	7.90400	0.00000	0.00000	0.00000	-3312.58618	950.76709	333.02155	-3124.30200	623.49780	361.34647	-3118.16113	562.12433	356.82886	-3198.60840	610.24323	368.75119	-3183.07275	550.51923	362.94672	-3109.38477	474.15686	352.46234	-3130.30884	453.30881	246.95326	-2936.61621	388.65573	347.36829	0.00000	0.00000	0.00000	-2980.30615	348.59390	361.80099	-2945.26611	318.38437	358.30777	-2823.07910	203.24132	330.62463	-2850.25879	194.56276	254.93910	-2745.11865	227.28064	292.13824	-2853.70312	61.51219	348.22296	-2887.47900	56.61895	294.98029	-2869.38525	64.00565	253.84109	-3146.57227	1013.87433	170.69522	-3325.38794	978.71014	129.35088	0.00000	0.00000	0.00000	0.00000	0.00000	0.00000	-3343.54150	606.23291	89.93327	-3366.03320	548.67804	99.99744	-3374.60059	479.96414	119.31835	-3332.69971	488.20395	224.75412	0.00000	0.00000	0.00000	-3363.79346	230.54622	104.51321	-3399.15771	292.81393	101.76982	-3404.79980	250.01225	105.43893	-3421.30298	97.88354	135.38818	-3440.52686	108.31909	219.10161	0.00000	0.00000	0.00000	-3566.04419	74.35452	225.25842	0.00000	0.00000	0.00000	-3543.73706	49.58364	120.94314
1978	7.90800	-3142.17920	1014.35577	284.76520	-3318.44922	951.57690	332.21808	-3133.02734	622.31189	360.97327	-3127.60156	560.97870	356.53247	-3205.28979	608.90015	367.86545	-3192.56665	550.05023	362.71707	-3119.17969	473.56351	352.70151	-3140.24121	451.76852	246.67603	-2946.01807	390.24277	347.10928	-2917.17993	354.61005	344.55661	-2989.13647	350.02826	362.55908	-2953.54712	319.91144	358.70782	-2830.37720	207.29768	331.64594	-2857.50000	197.29657	255.72427	-2753.86694	233.46431	292.99445	-2856.52979	63.88773	347.76288	-2898.55396	60.14343	295.08804	-2872.50659	65.96446	254.11179	-3151.95215	1015.27899	171.10863	-3330.85693	980.30157	128.75789	0.00000	0.00000	0.00000	0.00000	0.00000	0.00000	-3347.40137	607.28650	89.46914	-3369.54175	549.61536	99.61251	-3377.44434	480.43781	118.64316	-3336.84106	490.16440	224.20691	-3347.40674	276.10178	99.08083	-3365.27368	231.02521	103.79530	-3400.97070	292.97971	101.10179	-3406.34204	250.15277	104.84758	-3421.53198	97.70523	135.14813	-3441.00854	108.12513	218.71431	-3367.30688	61.41022	180.17490	-3566.26074	73.77972	225.13734	0.00000	0.00000	0.00000	-3543.92822	48.92655	120.84911
